<svg xmlns="http://www.w3.org/2000/svg" xmlns:xlink="http://www.w3.org/1999/xlink" width="500" zoomAndPan="magnify" viewBox="0 0 375 374.999991" height="500" preserveAspectRatio="xMidYMid meet" version="1.0"><defs><clipPath id="6810076ead"><path d="M 84.789062 197.246094 L 182.289062 197.246094 L 182.289062 281.996094 L 84.789062 281.996094 Z M 84.789062 197.246094 " clip-rule="nonzero"/></clipPath><clipPath id="eadb5bc7e8"><path d="M 133.632812 112.625 L 231.132812 112.625 L 231.132812 197.375 L 133.632812 197.375 Z M 133.632812 112.625 " clip-rule="nonzero"/></clipPath><clipPath id="f44490c594"><path d="M 182.476562 197.246094 L 279.976562 197.246094 L 279.976562 281.996094 L 182.476562 281.996094 Z M 182.476562 197.246094 " clip-rule="nonzero"/></clipPath></defs><g clip-path="url(#6810076ead)"><path fill="#8ccdb0" d="M 182.289062 239.628906 L 157.914062 281.996094 L 109.164062 281.996094 L 84.789062 239.628906 L 109.164062 197.265625 L 157.914062 197.265625 Z M 182.289062 239.628906 " fill-opacity="1" fill-rule="nonzero"/></g><g clip-path="url(#eadb5bc7e8)"><path fill="#ff5757" d="M 231.320312 154.941406 L 206.898438 197.242188 L 158.054688 197.242188 L 133.632812 154.941406 L 158.054688 112.640625 L 206.898438 112.640625 Z M 231.320312 154.941406 " fill-opacity="1" fill-rule="nonzero"/></g><g clip-path="url(#f44490c594)"><path fill="#ffde59" d="M 280.164062 239.566406 L 255.742188 281.867188 L 206.898438 281.867188 L 182.476562 239.566406 L 206.898438 197.265625 L 255.742188 197.265625 Z M 280.164062 239.566406 " fill-opacity="1" fill-rule="nonzero"/></g></svg>