<svg xmlns="http://www.w3.org/2000/svg" xmlns:xlink="http://www.w3.org/1999/xlink" width="100" zoomAndPan="magnify" viewBox="0 0 75 37.5" height="50" preserveAspectRatio="xMidYMid meet" version="1.0"><defs><g/><clipPath id="3a49080dc2"><path d="M 21.695312 18.933594 L 24.65625 18.933594 L 24.65625 21.894531 L 21.695312 21.894531 Z M 21.695312 18.933594 " clip-rule="nonzero"/></clipPath><clipPath id="682b5f3051"><path d="M 24.976562 18.933594 L 27.9375 18.933594 L 27.9375 21.894531 L 24.976562 21.894531 Z M 24.976562 18.933594 " clip-rule="nonzero"/></clipPath><clipPath id="ebb0dd2474"><path d="M 23.335938 16.09375 L 26.296875 16.09375 L 26.296875 19 L 23.335938 19 Z M 23.335938 16.09375 " clip-rule="nonzero"/></clipPath><clipPath id="92cd8d4c37"><path d="M 0.0195312 3 L 1 3 L 1 4 L 0.0195312 4 Z M 0.0195312 3 " clip-rule="nonzero"/></clipPath><clipPath id="47426aae53"><path d="M 25 1 L 26.78125 1 L 26.78125 4 L 25 4 Z M 25 1 " clip-rule="nonzero"/></clipPath><clipPath id="f25b550a65"><rect x="0" width="27" y="0" height="5"/></clipPath><clipPath id="8401eaf76c"><path d="M 0.574219 0.132812 L 22 0.132812 L 22 2 L 0.574219 2 Z M 0.574219 0.132812 " clip-rule="nonzero"/></clipPath><clipPath id="105a7f6cae"><rect x="0" width="23" y="0" height="3"/></clipPath></defs><g clip-path="url(#3a49080dc2)"><path fill="#8ccdb0" d="M 24.65625 20.414062 L 23.917969 21.894531 L 22.4375 21.894531 L 21.699219 20.414062 L 22.4375 18.933594 L 23.917969 18.933594 Z M 24.65625 20.414062 " fill-opacity="1" fill-rule="nonzero"/></g><g clip-path="url(#682b5f3051)"><path fill="#ffde59" d="M 28.25 20.351562 L 27.429688 21.769531 L 25.796875 21.769531 L 24.976562 20.351562 L 25.796875 18.933594 L 27.429688 18.933594 Z M 28.25 20.351562 " fill-opacity="1" fill-rule="nonzero"/></g><g clip-path="url(#ebb0dd2474)"><path fill="#ff5757" d="M 26.609375 17.511719 L 25.792969 18.929688 L 24.15625 18.929688 L 23.335938 17.511719 L 24.15625 16.09375 L 25.792969 16.09375 Z M 26.609375 17.511719 " fill-opacity="1" fill-rule="nonzero"/></g><g transform="matrix(1, 0, 0, 1, 27, 16)"><g clip-path="url(#f25b550a65)"><g clip-path="url(#92cd8d4c37)"><g fill="#ffffff" fill-opacity="1"><g transform="translate(0.218921, 3.527364)"><g/></g></g><g fill="#ffffff" fill-opacity="1"><g transform="translate(0.548443, 3.527364)"><g/></g></g><g fill="#ffffff" fill-opacity="1"><g transform="translate(0.877965, 3.527364)"><g/></g></g></g><g fill="#ffffff" fill-opacity="1"><g transform="translate(1.207487, 3.527364)"><g/></g></g><g fill="#ffffff" fill-opacity="1"><g transform="translate(1.537009, 3.527364)"><g/></g></g><g fill="#ffffff" fill-opacity="1"><g transform="translate(1.866531, 3.527364)"><g/></g></g><g fill="#ffffff" fill-opacity="1"><g transform="translate(2.196053, 3.527364)"><g/></g></g><g fill="#ffffff" fill-opacity="1"><g transform="translate(2.525575, 3.527364)"><g/></g></g><g fill="#ffffff" fill-opacity="1"><g transform="translate(2.855639, 3.527364)"><g><path d="M 1.65625 -1.203125 C 1.757812 -1.148438 1.84375 -1.078125 1.90625 -0.984375 C 1.96875 -0.898438 2 -0.796875 2 -0.671875 C 2 -0.535156 1.96875 -0.414062 1.90625 -0.3125 C 1.84375 -0.21875 1.753906 -0.140625 1.640625 -0.078125 C 1.523438 -0.0234375 1.394531 0 1.25 0 L 0.21875 0 L 0.21875 -2.28125 L 1.265625 -2.28125 C 1.378906 -2.28125 1.484375 -2.253906 1.578125 -2.203125 C 1.679688 -2.148438 1.753906 -2.078125 1.796875 -1.984375 C 1.847656 -1.890625 1.875 -1.785156 1.875 -1.671875 C 1.875 -1.566406 1.851562 -1.472656 1.8125 -1.390625 C 1.78125 -1.316406 1.726562 -1.253906 1.65625 -1.203125 Z M 1.109375 -1.390625 C 1.171875 -1.390625 1.222656 -1.410156 1.265625 -1.453125 C 1.304688 -1.492188 1.328125 -1.546875 1.328125 -1.609375 C 1.328125 -1.679688 1.304688 -1.734375 1.265625 -1.765625 C 1.222656 -1.804688 1.171875 -1.828125 1.109375 -1.828125 L 0.765625 -1.828125 L 0.765625 -1.390625 Z M 1.1875 -0.453125 C 1.269531 -0.453125 1.332031 -0.472656 1.375 -0.515625 C 1.425781 -0.554688 1.453125 -0.617188 1.453125 -0.703125 C 1.453125 -0.773438 1.425781 -0.832031 1.375 -0.875 C 1.332031 -0.925781 1.273438 -0.953125 1.203125 -0.953125 L 0.765625 -0.953125 L 0.765625 -0.453125 Z M 1.1875 -0.453125 "/></g></g></g><g fill="#ffffff" fill-opacity="1"><g transform="translate(4.959089, 3.527364)"><g><path d="M 0.796875 -1.703125 C 1.066406 -1.703125 1.265625 -1.644531 1.390625 -1.53125 C 1.523438 -1.425781 1.59375 -1.269531 1.59375 -1.0625 L 1.59375 0 L 1.15625 0 L 1.109375 -0.265625 C 1.054688 -0.171875 0.984375 -0.0976562 0.890625 -0.046875 C 0.796875 0.00390625 0.691406 0.03125 0.578125 0.03125 C 0.421875 0.03125 0.300781 -0.0078125 0.21875 -0.09375 C 0.132812 -0.175781 0.09375 -0.296875 0.09375 -0.453125 C 0.09375 -0.554688 0.117188 -0.644531 0.171875 -0.71875 C 0.222656 -0.800781 0.300781 -0.863281 0.40625 -0.90625 C 0.507812 -0.945312 0.628906 -0.96875 0.765625 -0.96875 L 1.0625 -0.96875 L 1.0625 -1 C 1.0625 -1.082031 1.03125 -1.148438 0.96875 -1.203125 C 0.914062 -1.253906 0.832031 -1.28125 0.71875 -1.28125 C 0.539062 -1.28125 0.378906 -1.242188 0.234375 -1.171875 L 0.234375 -1.59375 C 0.390625 -1.664062 0.578125 -1.703125 0.796875 -1.703125 Z M 0.78125 -0.34375 C 0.863281 -0.34375 0.929688 -0.367188 0.984375 -0.421875 C 1.035156 -0.484375 1.0625 -0.570312 1.0625 -0.6875 L 1.0625 -0.703125 L 0.859375 -0.703125 C 0.785156 -0.703125 0.726562 -0.679688 0.6875 -0.640625 C 0.644531 -0.609375 0.625 -0.566406 0.625 -0.515625 C 0.625 -0.453125 0.632812 -0.40625 0.65625 -0.375 C 0.6875 -0.351562 0.726562 -0.34375 0.78125 -0.34375 Z M 0.78125 -0.34375 "/></g></g></g><g fill="#ffffff" fill-opacity="1"><g transform="translate(6.712878, 3.527364)"><g><path d="M 1.203125 -1.703125 C 1.367188 -1.703125 1.5 -1.644531 1.59375 -1.53125 C 1.6875 -1.425781 1.734375 -1.265625 1.734375 -1.046875 L 1.734375 0 L 1.203125 0 L 1.203125 -0.96875 C 1.203125 -1.0625 1.179688 -1.132812 1.140625 -1.1875 C 1.109375 -1.238281 1.054688 -1.265625 0.984375 -1.265625 C 0.921875 -1.265625 0.867188 -1.25 0.828125 -1.21875 C 0.785156 -1.1875 0.753906 -1.140625 0.734375 -1.078125 C 0.710938 -1.023438 0.703125 -0.960938 0.703125 -0.890625 L 0.703125 0 L 0.171875 0 L 0.171875 -1.671875 L 0.609375 -1.671875 L 0.65625 -1.40625 C 0.71875 -1.5 0.796875 -1.570312 0.890625 -1.625 C 0.984375 -1.675781 1.085938 -1.703125 1.203125 -1.703125 Z M 1.203125 -1.703125 "/></g></g></g><g fill="#ffffff" fill-opacity="1"><g transform="translate(8.603969, 3.527364)"><g><path d="M 0.9375 0.03125 C 0.769531 0.03125 0.625 -0.00390625 0.5 -0.078125 C 0.375 -0.148438 0.273438 -0.25 0.203125 -0.375 C 0.128906 -0.507812 0.09375 -0.664062 0.09375 -0.84375 C 0.09375 -1.007812 0.128906 -1.15625 0.203125 -1.28125 C 0.273438 -1.414062 0.375 -1.519531 0.5 -1.59375 C 0.625 -1.664062 0.769531 -1.703125 0.9375 -1.703125 C 1.03125 -1.703125 1.125 -1.691406 1.21875 -1.671875 C 1.3125 -1.648438 1.390625 -1.625 1.453125 -1.59375 L 1.453125 -1.15625 C 1.390625 -1.1875 1.320312 -1.210938 1.25 -1.234375 C 1.175781 -1.253906 1.109375 -1.265625 1.046875 -1.265625 C 0.960938 -1.265625 0.890625 -1.242188 0.828125 -1.203125 C 0.765625 -1.171875 0.71875 -1.125 0.6875 -1.0625 C 0.65625 -1 0.640625 -0.925781 0.640625 -0.84375 C 0.640625 -0.757812 0.65625 -0.6875 0.6875 -0.625 C 0.726562 -0.5625 0.78125 -0.507812 0.84375 -0.46875 C 0.90625 -0.4375 0.976562 -0.421875 1.0625 -0.421875 C 1.132812 -0.421875 1.207031 -0.425781 1.28125 -0.4375 C 1.351562 -0.457031 1.421875 -0.484375 1.484375 -0.515625 L 1.484375 -0.09375 C 1.421875 -0.0507812 1.335938 -0.0195312 1.234375 0 C 1.140625 0.0195312 1.039062 0.03125 0.9375 0.03125 Z M 0.9375 0.03125 "/></g></g></g><g fill="#ffffff" fill-opacity="1"><g transform="translate(10.191167, 3.527364)"><g><path d="M 0.9375 0.03125 C 0.769531 0.03125 0.625 -0.00390625 0.5 -0.078125 C 0.375 -0.148438 0.273438 -0.25 0.203125 -0.375 C 0.128906 -0.507812 0.09375 -0.664062 0.09375 -0.84375 C 0.09375 -1.007812 0.128906 -1.15625 0.203125 -1.28125 C 0.273438 -1.414062 0.375 -1.519531 0.5 -1.59375 C 0.625 -1.664062 0.769531 -1.703125 0.9375 -1.703125 C 1.09375 -1.703125 1.234375 -1.664062 1.359375 -1.59375 C 1.484375 -1.519531 1.582031 -1.414062 1.65625 -1.28125 C 1.726562 -1.15625 1.765625 -1.007812 1.765625 -0.84375 C 1.765625 -0.664062 1.726562 -0.507812 1.65625 -0.375 C 1.582031 -0.25 1.484375 -0.148438 1.359375 -0.078125 C 1.234375 -0.00390625 1.09375 0.03125 0.9375 0.03125 Z M 0.921875 -0.421875 C 0.984375 -0.421875 1.035156 -0.4375 1.078125 -0.46875 C 1.117188 -0.507812 1.148438 -0.5625 1.171875 -0.625 C 1.203125 -0.6875 1.21875 -0.757812 1.21875 -0.84375 C 1.21875 -0.925781 1.203125 -1 1.171875 -1.0625 C 1.148438 -1.125 1.117188 -1.171875 1.078125 -1.203125 C 1.035156 -1.242188 0.984375 -1.265625 0.921875 -1.265625 C 0.867188 -1.265625 0.820312 -1.242188 0.78125 -1.203125 C 0.738281 -1.171875 0.703125 -1.125 0.671875 -1.0625 C 0.648438 -1 0.640625 -0.925781 0.640625 -0.84375 C 0.640625 -0.757812 0.648438 -0.6875 0.671875 -0.625 C 0.703125 -0.5625 0.738281 -0.507812 0.78125 -0.46875 C 0.820312 -0.4375 0.867188 -0.421875 0.921875 -0.421875 Z M 0.921875 -0.421875 "/></g></g></g><g fill="#ffffff" fill-opacity="1"><g transform="translate(12.051136, 3.527364)"><g/></g></g><g fill="#ffffff" fill-opacity="1"><g transform="translate(12.380658, 3.527364)"><g><path d="M 1.15625 0.03125 C 0.945312 0.03125 0.765625 -0.015625 0.609375 -0.109375 C 0.453125 -0.210938 0.332031 -0.351562 0.25 -0.53125 C 0.164062 -0.707031 0.125 -0.910156 0.125 -1.140625 C 0.125 -1.378906 0.164062 -1.582031 0.25 -1.75 C 0.332031 -1.925781 0.453125 -2.0625 0.609375 -2.15625 C 0.765625 -2.257812 0.945312 -2.3125 1.15625 -2.3125 C 1.269531 -2.3125 1.382812 -2.296875 1.5 -2.265625 C 1.613281 -2.234375 1.707031 -2.195312 1.78125 -2.15625 L 1.78125 -1.734375 C 1.71875 -1.773438 1.640625 -1.804688 1.546875 -1.828125 C 1.460938 -1.847656 1.375 -1.859375 1.28125 -1.859375 C 1.164062 -1.859375 1.0625 -1.828125 0.96875 -1.765625 C 0.875 -1.710938 0.800781 -1.628906 0.75 -1.515625 C 0.695312 -1.410156 0.671875 -1.285156 0.671875 -1.140625 C 0.671875 -0.992188 0.695312 -0.863281 0.75 -0.75 C 0.800781 -0.644531 0.875 -0.5625 0.96875 -0.5 C 1.0625 -0.445312 1.171875 -0.421875 1.296875 -0.421875 C 1.378906 -0.421875 1.46875 -0.429688 1.5625 -0.453125 C 1.65625 -0.484375 1.738281 -0.519531 1.8125 -0.5625 L 1.8125 -0.140625 C 1.726562 -0.0859375 1.625 -0.046875 1.5 -0.015625 C 1.382812 0.015625 1.269531 0.03125 1.15625 0.03125 Z M 1.15625 0.03125 "/></g></g></g><g fill="#ffffff" fill-opacity="1"><g transform="translate(14.293716, 3.527364)"><g><path d="M 0.9375 0.03125 C 0.769531 0.03125 0.625 -0.00390625 0.5 -0.078125 C 0.375 -0.148438 0.273438 -0.25 0.203125 -0.375 C 0.128906 -0.507812 0.09375 -0.664062 0.09375 -0.84375 C 0.09375 -1.007812 0.128906 -1.15625 0.203125 -1.28125 C 0.273438 -1.414062 0.375 -1.519531 0.5 -1.59375 C 0.625 -1.664062 0.769531 -1.703125 0.9375 -1.703125 C 1.09375 -1.703125 1.234375 -1.664062 1.359375 -1.59375 C 1.484375 -1.519531 1.582031 -1.414062 1.65625 -1.28125 C 1.726562 -1.15625 1.765625 -1.007812 1.765625 -0.84375 C 1.765625 -0.664062 1.726562 -0.507812 1.65625 -0.375 C 1.582031 -0.25 1.484375 -0.148438 1.359375 -0.078125 C 1.234375 -0.00390625 1.09375 0.03125 0.9375 0.03125 Z M 0.921875 -0.421875 C 0.984375 -0.421875 1.035156 -0.4375 1.078125 -0.46875 C 1.117188 -0.507812 1.148438 -0.5625 1.171875 -0.625 C 1.203125 -0.6875 1.21875 -0.757812 1.21875 -0.84375 C 1.21875 -0.925781 1.203125 -1 1.171875 -1.0625 C 1.148438 -1.125 1.117188 -1.171875 1.078125 -1.203125 C 1.035156 -1.242188 0.984375 -1.265625 0.921875 -1.265625 C 0.867188 -1.265625 0.820312 -1.242188 0.78125 -1.203125 C 0.738281 -1.171875 0.703125 -1.125 0.671875 -1.0625 C 0.648438 -1 0.640625 -0.925781 0.640625 -0.84375 C 0.640625 -0.757812 0.648438 -0.6875 0.671875 -0.625 C 0.703125 -0.5625 0.738281 -0.507812 0.78125 -0.46875 C 0.820312 -0.4375 0.867188 -0.421875 0.921875 -0.421875 Z M 0.921875 -0.421875 "/></g></g></g><g fill="#ffffff" fill-opacity="1"><g transform="translate(16.153685, 3.527364)"><g><path d="M 0.703125 -2.40625 L 0.703125 0 L 0.171875 0 L 0.171875 -2.40625 Z M 0.703125 -2.40625 "/></g></g></g><g fill="#ffffff" fill-opacity="1"><g transform="translate(17.03058, 3.527364)"><g><path d="M 2.140625 -1.703125 C 2.296875 -1.703125 2.414062 -1.648438 2.5 -1.546875 C 2.59375 -1.441406 2.640625 -1.285156 2.640625 -1.078125 L 2.640625 0 L 2.109375 0 L 2.109375 -1 C 2.109375 -1.082031 2.09375 -1.144531 2.0625 -1.1875 C 2.03125 -1.238281 1.984375 -1.265625 1.921875 -1.265625 C 1.835938 -1.265625 1.773438 -1.226562 1.734375 -1.15625 C 1.691406 -1.09375 1.671875 -1.003906 1.671875 -0.890625 L 1.671875 0 L 1.140625 0 L 1.140625 -1 C 1.140625 -1.082031 1.125 -1.144531 1.09375 -1.1875 C 1.0625 -1.238281 1.015625 -1.265625 0.953125 -1.265625 C 0.898438 -1.265625 0.851562 -1.25 0.8125 -1.21875 C 0.78125 -1.1875 0.753906 -1.140625 0.734375 -1.078125 C 0.710938 -1.023438 0.703125 -0.960938 0.703125 -0.890625 L 0.703125 0 L 0.171875 0 L 0.171875 -1.671875 L 0.609375 -1.671875 L 0.65625 -1.40625 C 0.71875 -1.5 0.789062 -1.570312 0.875 -1.625 C 0.96875 -1.675781 1.066406 -1.703125 1.171875 -1.703125 C 1.273438 -1.703125 1.363281 -1.679688 1.4375 -1.640625 C 1.507812 -1.597656 1.566406 -1.53125 1.609375 -1.4375 C 1.671875 -1.519531 1.75 -1.582031 1.84375 -1.625 C 1.9375 -1.675781 2.035156 -1.703125 2.140625 -1.703125 Z M 2.140625 -1.703125 "/></g></g></g><g fill="#ffffff" fill-opacity="1"><g transform="translate(19.826026, 3.527364)"><g><path d="M 0.640625 -0.71875 C 0.660156 -0.613281 0.707031 -0.535156 0.78125 -0.484375 C 0.851562 -0.429688 0.957031 -0.40625 1.09375 -0.40625 C 1.1875 -0.40625 1.273438 -0.410156 1.359375 -0.421875 C 1.441406 -0.441406 1.507812 -0.460938 1.5625 -0.484375 L 1.5 -0.0625 C 1.414062 -0.03125 1.328125 -0.0078125 1.234375 0 C 1.140625 0.0195312 1.039062 0.03125 0.9375 0.03125 C 0.769531 0.03125 0.625 0 0.5 -0.0625 C 0.375 -0.132812 0.273438 -0.234375 0.203125 -0.359375 C 0.128906 -0.492188 0.09375 -0.648438 0.09375 -0.828125 C 0.09375 -0.992188 0.128906 -1.144531 0.203125 -1.28125 C 0.273438 -1.414062 0.375 -1.519531 0.5 -1.59375 C 0.625 -1.664062 0.769531 -1.703125 0.9375 -1.703125 C 1.070312 -1.703125 1.191406 -1.664062 1.296875 -1.59375 C 1.398438 -1.53125 1.476562 -1.4375 1.53125 -1.3125 C 1.59375 -1.1875 1.625 -1.039062 1.625 -0.875 L 1.625 -0.71875 Z M 0.90625 -1.28125 C 0.84375 -1.28125 0.785156 -1.253906 0.734375 -1.203125 C 0.691406 -1.160156 0.664062 -1.09375 0.65625 -1 L 1.125 -1 C 1.125 -1.082031 1.101562 -1.148438 1.0625 -1.203125 C 1.03125 -1.253906 0.976562 -1.28125 0.90625 -1.28125 Z M 0.90625 -1.28125 "/></g></g></g><g fill="#ffffff" fill-opacity="1"><g transform="translate(21.557847, 3.527364)"><g><path d="M 1.203125 -1.703125 C 1.367188 -1.703125 1.5 -1.644531 1.59375 -1.53125 C 1.6875 -1.425781 1.734375 -1.265625 1.734375 -1.046875 L 1.734375 0 L 1.203125 0 L 1.203125 -0.96875 C 1.203125 -1.0625 1.179688 -1.132812 1.140625 -1.1875 C 1.109375 -1.238281 1.054688 -1.265625 0.984375 -1.265625 C 0.921875 -1.265625 0.867188 -1.25 0.828125 -1.21875 C 0.785156 -1.1875 0.753906 -1.140625 0.734375 -1.078125 C 0.710938 -1.023438 0.703125 -0.960938 0.703125 -0.890625 L 0.703125 0 L 0.171875 0 L 0.171875 -1.671875 L 0.609375 -1.671875 L 0.65625 -1.40625 C 0.71875 -1.5 0.796875 -1.570312 0.890625 -1.625 C 0.984375 -1.675781 1.085938 -1.703125 1.203125 -1.703125 Z M 1.203125 -1.703125 "/></g></g></g><g fill="#ffffff" fill-opacity="1"><g transform="translate(23.448937, 3.527364)"><g><path d="M 0.796875 -1.703125 C 1.066406 -1.703125 1.265625 -1.644531 1.390625 -1.53125 C 1.523438 -1.425781 1.59375 -1.269531 1.59375 -1.0625 L 1.59375 0 L 1.15625 0 L 1.109375 -0.265625 C 1.054688 -0.171875 0.984375 -0.0976562 0.890625 -0.046875 C 0.796875 0.00390625 0.691406 0.03125 0.578125 0.03125 C 0.421875 0.03125 0.300781 -0.0078125 0.21875 -0.09375 C 0.132812 -0.175781 0.09375 -0.296875 0.09375 -0.453125 C 0.09375 -0.554688 0.117188 -0.644531 0.171875 -0.71875 C 0.222656 -0.800781 0.300781 -0.863281 0.40625 -0.90625 C 0.507812 -0.945312 0.628906 -0.96875 0.765625 -0.96875 L 1.0625 -0.96875 L 1.0625 -1 C 1.0625 -1.082031 1.03125 -1.148438 0.96875 -1.203125 C 0.914062 -1.253906 0.832031 -1.28125 0.71875 -1.28125 C 0.539062 -1.28125 0.378906 -1.242188 0.234375 -1.171875 L 0.234375 -1.59375 C 0.390625 -1.664062 0.578125 -1.703125 0.796875 -1.703125 Z M 0.78125 -0.34375 C 0.863281 -0.34375 0.929688 -0.367188 0.984375 -0.421875 C 1.035156 -0.484375 1.0625 -0.570312 1.0625 -0.6875 L 1.0625 -0.703125 L 0.859375 -0.703125 C 0.785156 -0.703125 0.726562 -0.679688 0.6875 -0.640625 C 0.644531 -0.609375 0.625 -0.566406 0.625 -0.515625 C 0.625 -0.453125 0.632812 -0.40625 0.65625 -0.375 C 0.6875 -0.351562 0.726562 -0.34375 0.78125 -0.34375 Z M 0.78125 -0.34375 "/></g></g></g><g clip-path="url(#47426aae53)"><g fill="#ffffff" fill-opacity="1"><g transform="translate(25.202729, 3.527364)"><g><path d="M 0.734375 0.03125 C 0.617188 0.03125 0.507812 0.0195312 0.40625 0 C 0.300781 -0.0195312 0.222656 -0.0390625 0.171875 -0.0625 L 0.09375 -0.484375 C 0.164062 -0.441406 0.253906 -0.410156 0.359375 -0.390625 C 0.460938 -0.367188 0.566406 -0.359375 0.671875 -0.359375 C 0.753906 -0.359375 0.816406 -0.367188 0.859375 -0.390625 C 0.910156 -0.421875 0.9375 -0.457031 0.9375 -0.5 C 0.9375 -0.5625 0.894531 -0.609375 0.8125 -0.640625 L 0.53125 -0.71875 C 0.40625 -0.757812 0.304688 -0.816406 0.234375 -0.890625 C 0.160156 -0.960938 0.125 -1.054688 0.125 -1.171875 C 0.125 -1.273438 0.148438 -1.367188 0.203125 -1.453125 C 0.253906 -1.535156 0.328125 -1.597656 0.421875 -1.640625 C 0.523438 -1.679688 0.640625 -1.703125 0.765625 -1.703125 C 0.859375 -1.703125 0.957031 -1.691406 1.0625 -1.671875 C 1.175781 -1.648438 1.273438 -1.625 1.359375 -1.59375 L 1.359375 -1.203125 C 1.285156 -1.234375 1.203125 -1.257812 1.109375 -1.28125 C 1.015625 -1.300781 0.925781 -1.3125 0.84375 -1.3125 C 0.78125 -1.3125 0.726562 -1.300781 0.6875 -1.28125 C 0.65625 -1.257812 0.640625 -1.234375 0.640625 -1.203125 C 0.640625 -1.171875 0.648438 -1.144531 0.671875 -1.125 C 0.691406 -1.113281 0.722656 -1.101562 0.765625 -1.09375 L 1.046875 -1 C 1.160156 -0.957031 1.257812 -0.898438 1.34375 -0.828125 C 1.425781 -0.753906 1.46875 -0.660156 1.46875 -0.546875 C 1.46875 -0.429688 1.4375 -0.328125 1.375 -0.234375 C 1.3125 -0.148438 1.222656 -0.0820312 1.109375 -0.03125 C 1.003906 0.0078125 0.878906 0.03125 0.734375 0.03125 Z M 0.734375 0.03125 "/></g></g></g></g></g></g><g transform="matrix(1, 0, 0, 1, 30, 20)"><g clip-path="url(#105a7f6cae)"><g clip-path="url(#8401eaf76c)"><g fill="#ffffff" fill-opacity="1"><g transform="translate(0.737397, 1.594933)"><g><path d="M 0.546875 -0.765625 C 0.484375 -0.765625 0.421875 -0.742188 0.359375 -0.703125 C 0.304688 -0.671875 0.265625 -0.617188 0.234375 -0.546875 C 0.203125 -0.472656 0.1875 -0.394531 0.1875 -0.3125 C 0.1875 -0.238281 0.207031 -0.179688 0.25 -0.140625 C 0.289062 -0.0976562 0.34375 -0.078125 0.40625 -0.078125 C 0.457031 -0.078125 0.519531 -0.0859375 0.59375 -0.109375 L 0.59375 -0.015625 C 0.5625 -0.00390625 0.53125 0 0.5 0 C 0.46875 0.0078125 0.429688 0.015625 0.390625 0.015625 C 0.296875 0.015625 0.222656 -0.0078125 0.171875 -0.0625 C 0.117188 -0.125 0.09375 -0.207031 0.09375 -0.3125 C 0.09375 -0.414062 0.109375 -0.507812 0.140625 -0.59375 C 0.179688 -0.675781 0.238281 -0.738281 0.3125 -0.78125 C 0.382812 -0.832031 0.460938 -0.859375 0.546875 -0.859375 C 0.617188 -0.859375 0.6875 -0.84375 0.75 -0.8125 L 0.703125 -0.734375 C 0.648438 -0.753906 0.597656 -0.765625 0.546875 -0.765625 Z M 0.546875 -0.765625 "/></g></g><g transform="translate(1.430114, 1.594933)"><g><path d="M 0.375 -0.640625 C 0.445312 -0.640625 0.503906 -0.617188 0.546875 -0.578125 C 0.585938 -0.535156 0.609375 -0.476562 0.609375 -0.40625 C 0.609375 -0.332031 0.59375 -0.257812 0.5625 -0.1875 C 0.539062 -0.125 0.503906 -0.0703125 0.453125 -0.03125 C 0.410156 0 0.359375 0.015625 0.296875 0.015625 C 0.222656 0.015625 0.164062 -0.00390625 0.125 -0.046875 C 0.0820312 -0.0976562 0.0625 -0.160156 0.0625 -0.234375 C 0.0625 -0.304688 0.0703125 -0.375 0.09375 -0.4375 C 0.125 -0.507812 0.160156 -0.5625 0.203125 -0.59375 C 0.253906 -0.625 0.3125 -0.640625 0.375 -0.640625 Z M 0.515625 -0.40625 C 0.515625 -0.457031 0.5 -0.492188 0.46875 -0.515625 C 0.445312 -0.546875 0.414062 -0.5625 0.375 -0.5625 C 0.332031 -0.5625 0.296875 -0.546875 0.265625 -0.515625 C 0.234375 -0.484375 0.207031 -0.441406 0.1875 -0.390625 C 0.164062 -0.347656 0.15625 -0.296875 0.15625 -0.234375 C 0.15625 -0.179688 0.164062 -0.140625 0.1875 -0.109375 C 0.21875 -0.0859375 0.253906 -0.078125 0.296875 -0.078125 C 0.335938 -0.078125 0.375 -0.0859375 0.40625 -0.109375 C 0.4375 -0.140625 0.460938 -0.179688 0.484375 -0.234375 C 0.503906 -0.285156 0.515625 -0.34375 0.515625 -0.40625 Z M 0.515625 -0.40625 "/></g></g><g transform="translate(2.094498, 1.594933)"><g><path d="M 0.40625 0 L 0.484375 -0.40625 C 0.492188 -0.4375 0.5 -0.460938 0.5 -0.484375 C 0.5 -0.503906 0.492188 -0.519531 0.484375 -0.53125 C 0.472656 -0.550781 0.453125 -0.5625 0.421875 -0.5625 C 0.390625 -0.5625 0.359375 -0.550781 0.328125 -0.53125 C 0.296875 -0.507812 0.265625 -0.472656 0.234375 -0.421875 C 0.210938 -0.378906 0.195312 -0.332031 0.1875 -0.28125 L 0.125 0 L 0.03125 0 L 0.171875 -0.640625 L 0.25 -0.640625 L 0.234375 -0.515625 L 0.25 -0.515625 C 0.28125 -0.566406 0.3125 -0.597656 0.34375 -0.609375 C 0.375 -0.628906 0.410156 -0.640625 0.453125 -0.640625 C 0.492188 -0.640625 0.523438 -0.628906 0.546875 -0.609375 C 0.566406 -0.585938 0.582031 -0.550781 0.59375 -0.5 C 0.625 -0.550781 0.65625 -0.585938 0.6875 -0.609375 C 0.726562 -0.628906 0.769531 -0.640625 0.8125 -0.640625 C 0.863281 -0.640625 0.898438 -0.625 0.921875 -0.59375 C 0.953125 -0.570312 0.96875 -0.539062 0.96875 -0.5 C 0.96875 -0.46875 0.960938 -0.429688 0.953125 -0.390625 L 0.875 0 L 0.78125 0 L 0.859375 -0.40625 C 0.867188 -0.445312 0.875 -0.472656 0.875 -0.484375 C 0.875 -0.503906 0.863281 -0.519531 0.84375 -0.53125 C 0.832031 -0.550781 0.8125 -0.5625 0.78125 -0.5625 C 0.75 -0.5625 0.71875 -0.550781 0.6875 -0.53125 C 0.664062 -0.507812 0.640625 -0.476562 0.609375 -0.4375 C 0.585938 -0.394531 0.570312 -0.347656 0.5625 -0.296875 L 0.5 0 Z M 0.40625 0 "/></g></g><g transform="translate(3.127212, 1.594933)"><g><path d="M 0.3125 0.015625 C 0.28125 0.015625 0.25 0.00390625 0.21875 -0.015625 C 0.1875 -0.0351562 0.164062 -0.0625 0.15625 -0.09375 L 0.140625 -0.09375 L 0.140625 -0.078125 C 0.140625 -0.0664062 0.140625 -0.0507812 0.140625 -0.03125 C 0.140625 -0.0195312 0.117188 0.0820312 0.078125 0.28125 L -0.03125 0.28125 L 0.171875 -0.640625 L 0.25 -0.640625 L 0.234375 -0.515625 C 0.304688 -0.597656 0.378906 -0.640625 0.453125 -0.640625 C 0.503906 -0.640625 0.546875 -0.617188 0.578125 -0.578125 C 0.609375 -0.546875 0.625 -0.5 0.625 -0.4375 C 0.625 -0.351562 0.609375 -0.273438 0.578125 -0.203125 C 0.554688 -0.140625 0.519531 -0.0859375 0.46875 -0.046875 C 0.425781 -0.00390625 0.375 0.015625 0.3125 0.015625 Z M 0.421875 -0.5625 C 0.390625 -0.5625 0.351562 -0.539062 0.3125 -0.5 C 0.269531 -0.46875 0.238281 -0.421875 0.21875 -0.359375 C 0.195312 -0.304688 0.1875 -0.253906 0.1875 -0.203125 C 0.1875 -0.160156 0.195312 -0.125 0.21875 -0.09375 C 0.238281 -0.0703125 0.269531 -0.0625 0.3125 -0.0625 C 0.351562 -0.0625 0.390625 -0.078125 0.421875 -0.109375 C 0.453125 -0.140625 0.476562 -0.1875 0.5 -0.25 C 0.519531 -0.3125 0.53125 -0.375 0.53125 -0.4375 C 0.53125 -0.519531 0.492188 -0.5625 0.421875 -0.5625 Z M 0.421875 -0.5625 "/></g></g><g transform="translate(3.810678, 1.594933)"><g><path d="M 0.4375 -0.640625 C 0.457031 -0.640625 0.476562 -0.640625 0.5 -0.640625 L 0.484375 -0.546875 C 0.460938 -0.554688 0.441406 -0.5625 0.421875 -0.5625 C 0.390625 -0.5625 0.359375 -0.546875 0.328125 -0.515625 C 0.296875 -0.492188 0.265625 -0.460938 0.234375 -0.421875 C 0.210938 -0.378906 0.195312 -0.335938 0.1875 -0.296875 L 0.125 0 L 0.03125 0 L 0.171875 -0.640625 L 0.25 -0.640625 L 0.234375 -0.515625 L 0.25 -0.515625 C 0.269531 -0.554688 0.289062 -0.582031 0.3125 -0.59375 C 0.332031 -0.613281 0.351562 -0.625 0.375 -0.625 C 0.394531 -0.632812 0.414062 -0.640625 0.4375 -0.640625 Z M 0.4375 -0.640625 "/></g></g><g transform="translate(4.27962, 1.594933)"><g><path d="M 0.375 -0.640625 C 0.445312 -0.640625 0.503906 -0.617188 0.546875 -0.578125 C 0.585938 -0.535156 0.609375 -0.476562 0.609375 -0.40625 C 0.609375 -0.332031 0.59375 -0.257812 0.5625 -0.1875 C 0.539062 -0.125 0.503906 -0.0703125 0.453125 -0.03125 C 0.410156 0 0.359375 0.015625 0.296875 0.015625 C 0.222656 0.015625 0.164062 -0.00390625 0.125 -0.046875 C 0.0820312 -0.0976562 0.0625 -0.160156 0.0625 -0.234375 C 0.0625 -0.304688 0.0703125 -0.375 0.09375 -0.4375 C 0.125 -0.507812 0.160156 -0.5625 0.203125 -0.59375 C 0.253906 -0.625 0.3125 -0.640625 0.375 -0.640625 Z M 0.515625 -0.40625 C 0.515625 -0.457031 0.5 -0.492188 0.46875 -0.515625 C 0.445312 -0.546875 0.414062 -0.5625 0.375 -0.5625 C 0.332031 -0.5625 0.296875 -0.546875 0.265625 -0.515625 C 0.234375 -0.484375 0.207031 -0.441406 0.1875 -0.390625 C 0.164062 -0.347656 0.15625 -0.296875 0.15625 -0.234375 C 0.15625 -0.179688 0.164062 -0.140625 0.1875 -0.109375 C 0.21875 -0.0859375 0.253906 -0.078125 0.296875 -0.078125 C 0.335938 -0.078125 0.375 -0.0859375 0.40625 -0.109375 C 0.4375 -0.140625 0.460938 -0.179688 0.484375 -0.234375 C 0.503906 -0.285156 0.515625 -0.34375 0.515625 -0.40625 Z M 0.515625 -0.40625 "/></g></g><g transform="translate(4.944004, 1.594933)"><g><path d="M 0.40625 0 L 0.484375 -0.40625 C 0.492188 -0.4375 0.5 -0.460938 0.5 -0.484375 C 0.5 -0.503906 0.492188 -0.519531 0.484375 -0.53125 C 0.472656 -0.550781 0.453125 -0.5625 0.421875 -0.5625 C 0.390625 -0.5625 0.359375 -0.550781 0.328125 -0.53125 C 0.296875 -0.507812 0.265625 -0.472656 0.234375 -0.421875 C 0.210938 -0.378906 0.195312 -0.332031 0.1875 -0.28125 L 0.125 0 L 0.03125 0 L 0.171875 -0.640625 L 0.25 -0.640625 L 0.234375 -0.515625 L 0.25 -0.515625 C 0.28125 -0.566406 0.3125 -0.597656 0.34375 -0.609375 C 0.375 -0.628906 0.410156 -0.640625 0.453125 -0.640625 C 0.492188 -0.640625 0.523438 -0.628906 0.546875 -0.609375 C 0.566406 -0.585938 0.582031 -0.550781 0.59375 -0.5 C 0.625 -0.550781 0.65625 -0.585938 0.6875 -0.609375 C 0.726562 -0.628906 0.769531 -0.640625 0.8125 -0.640625 C 0.863281 -0.640625 0.898438 -0.625 0.921875 -0.59375 C 0.953125 -0.570312 0.96875 -0.539062 0.96875 -0.5 C 0.96875 -0.46875 0.960938 -0.429688 0.953125 -0.390625 L 0.875 0 L 0.78125 0 L 0.859375 -0.40625 C 0.867188 -0.445312 0.875 -0.472656 0.875 -0.484375 C 0.875 -0.503906 0.863281 -0.519531 0.84375 -0.53125 C 0.832031 -0.550781 0.8125 -0.5625 0.78125 -0.5625 C 0.75 -0.5625 0.71875 -0.550781 0.6875 -0.53125 C 0.664062 -0.507812 0.640625 -0.476562 0.609375 -0.4375 C 0.585938 -0.394531 0.570312 -0.347656 0.5625 -0.296875 L 0.5 0 Z M 0.40625 0 "/></g></g><g transform="translate(5.976719, 1.594933)"><g><path d="M 0.28125 0.015625 C 0.207031 0.015625 0.148438 -0.00390625 0.109375 -0.046875 C 0.078125 -0.0859375 0.0625 -0.148438 0.0625 -0.234375 C 0.0625 -0.296875 0.0703125 -0.359375 0.09375 -0.421875 C 0.125 -0.492188 0.160156 -0.546875 0.203125 -0.578125 C 0.253906 -0.617188 0.3125 -0.640625 0.375 -0.640625 C 0.425781 -0.640625 0.46875 -0.625 0.5 -0.59375 C 0.53125 -0.570312 0.546875 -0.539062 0.546875 -0.5 C 0.546875 -0.425781 0.515625 -0.367188 0.453125 -0.328125 C 0.390625 -0.296875 0.296875 -0.28125 0.171875 -0.28125 L 0.15625 -0.28125 L 0.15625 -0.234375 C 0.15625 -0.179688 0.164062 -0.140625 0.1875 -0.109375 C 0.21875 -0.078125 0.253906 -0.0625 0.296875 -0.0625 C 0.328125 -0.0625 0.351562 -0.0664062 0.375 -0.078125 C 0.40625 -0.0859375 0.4375 -0.101562 0.46875 -0.125 L 0.46875 -0.03125 C 0.4375 -0.0195312 0.40625 -0.0078125 0.375 0 C 0.34375 0.0078125 0.3125 0.015625 0.28125 0.015625 Z M 0.359375 -0.5625 C 0.328125 -0.5625 0.289062 -0.539062 0.25 -0.5 C 0.21875 -0.46875 0.191406 -0.421875 0.171875 -0.359375 L 0.1875 -0.359375 C 0.269531 -0.359375 0.332031 -0.367188 0.375 -0.390625 C 0.425781 -0.410156 0.453125 -0.445312 0.453125 -0.5 C 0.453125 -0.519531 0.441406 -0.535156 0.421875 -0.546875 C 0.410156 -0.554688 0.390625 -0.5625 0.359375 -0.5625 Z M 0.359375 -0.5625 "/></g></g><g transform="translate(6.560729, 1.594933)"><g><path d="M 0.234375 -0.0625 C 0.253906 -0.0625 0.28125 -0.0664062 0.3125 -0.078125 L 0.3125 -0.015625 C 0.300781 -0.00390625 0.285156 0 0.265625 0 C 0.242188 0.0078125 0.226562 0.015625 0.21875 0.015625 C 0.164062 0.015625 0.125 0.00390625 0.09375 -0.015625 C 0.0703125 -0.046875 0.0625 -0.0820312 0.0625 -0.125 C 0.0625 -0.15625 0.0664062 -0.1875 0.078125 -0.21875 L 0.15625 -0.5625 L 0.046875 -0.5625 L 0.0625 -0.609375 L 0.171875 -0.65625 L 0.234375 -0.78125 L 0.296875 -0.78125 L 0.265625 -0.640625 L 0.421875 -0.640625 L 0.40625 -0.5625 L 0.25 -0.5625 L 0.171875 -0.21875 C 0.171875 -0.175781 0.171875 -0.148438 0.171875 -0.140625 C 0.171875 -0.117188 0.175781 -0.0976562 0.1875 -0.078125 C 0.195312 -0.0664062 0.210938 -0.0625 0.234375 -0.0625 Z M 0.234375 -0.0625 "/></g></g><g transform="translate(6.944672, 1.594933)"><g><path d="M 0.125 0 L 0.03125 0 L 0.171875 -0.640625 L 0.265625 -0.640625 Z M 0.203125 -0.796875 C 0.203125 -0.816406 0.207031 -0.832031 0.21875 -0.84375 C 0.226562 -0.863281 0.242188 -0.875 0.265625 -0.875 C 0.296875 -0.875 0.3125 -0.851562 0.3125 -0.8125 C 0.3125 -0.789062 0.304688 -0.773438 0.296875 -0.765625 C 0.285156 -0.753906 0.269531 -0.75 0.25 -0.75 C 0.238281 -0.75 0.226562 -0.75 0.21875 -0.75 C 0.207031 -0.757812 0.203125 -0.773438 0.203125 -0.796875 Z M 0.203125 -0.796875 "/></g></g><g transform="translate(7.245351, 1.594933)"><g><path d="M 0.375 -0.640625 C 0.445312 -0.640625 0.5 -0.601562 0.53125 -0.53125 L 0.546875 -0.53125 C 0.546875 -0.59375 0.550781 -0.644531 0.5625 -0.6875 L 0.609375 -0.90625 L 0.703125 -0.90625 L 0.515625 0 L 0.4375 0 L 0.453125 -0.125 L 0.4375 -0.125 C 0.40625 -0.0703125 0.367188 -0.0351562 0.328125 -0.015625 C 0.296875 0.00390625 0.265625 0.015625 0.234375 0.015625 C 0.171875 0.015625 0.125 -0.00390625 0.09375 -0.046875 C 0.0703125 -0.0859375 0.0625 -0.140625 0.0625 -0.203125 C 0.0625 -0.285156 0.0703125 -0.359375 0.09375 -0.421875 C 0.125 -0.492188 0.160156 -0.546875 0.203125 -0.578125 C 0.253906 -0.617188 0.3125 -0.640625 0.375 -0.640625 Z M 0.265625 -0.0625 C 0.296875 -0.0625 0.332031 -0.078125 0.375 -0.109375 C 0.414062 -0.148438 0.445312 -0.195312 0.46875 -0.25 C 0.488281 -0.3125 0.5 -0.375 0.5 -0.4375 C 0.5 -0.476562 0.488281 -0.507812 0.46875 -0.53125 C 0.445312 -0.550781 0.414062 -0.5625 0.375 -0.5625 C 0.332031 -0.5625 0.296875 -0.546875 0.265625 -0.515625 C 0.234375 -0.484375 0.207031 -0.4375 0.1875 -0.375 C 0.164062 -0.320312 0.15625 -0.265625 0.15625 -0.203125 C 0.15625 -0.109375 0.191406 -0.0625 0.265625 -0.0625 Z M 0.265625 -0.0625 "/></g></g><g transform="translate(7.928816, 1.594933)"><g><path d="M 0.375 -0.640625 C 0.445312 -0.640625 0.503906 -0.617188 0.546875 -0.578125 C 0.585938 -0.535156 0.609375 -0.476562 0.609375 -0.40625 C 0.609375 -0.332031 0.59375 -0.257812 0.5625 -0.1875 C 0.539062 -0.125 0.503906 -0.0703125 0.453125 -0.03125 C 0.410156 0 0.359375 0.015625 0.296875 0.015625 C 0.222656 0.015625 0.164062 -0.00390625 0.125 -0.046875 C 0.0820312 -0.0976562 0.0625 -0.160156 0.0625 -0.234375 C 0.0625 -0.304688 0.0703125 -0.375 0.09375 -0.4375 C 0.125 -0.507812 0.160156 -0.5625 0.203125 -0.59375 C 0.253906 -0.625 0.3125 -0.640625 0.375 -0.640625 Z M 0.515625 -0.40625 C 0.515625 -0.457031 0.5 -0.492188 0.46875 -0.515625 C 0.445312 -0.546875 0.414062 -0.5625 0.375 -0.5625 C 0.332031 -0.5625 0.296875 -0.546875 0.265625 -0.515625 C 0.234375 -0.484375 0.207031 -0.441406 0.1875 -0.390625 C 0.164062 -0.347656 0.15625 -0.296875 0.15625 -0.234375 C 0.15625 -0.179688 0.164062 -0.140625 0.1875 -0.109375 C 0.21875 -0.0859375 0.253906 -0.078125 0.296875 -0.078125 C 0.335938 -0.078125 0.375 -0.0859375 0.40625 -0.109375 C 0.4375 -0.140625 0.460938 -0.179688 0.484375 -0.234375 C 0.503906 -0.285156 0.515625 -0.34375 0.515625 -0.40625 Z M 0.515625 -0.40625 "/></g></g><g transform="translate(8.5932, 1.594933)"><g><path d="M 0.421875 -0.1875 C 0.421875 -0.125 0.398438 -0.0703125 0.359375 -0.03125 C 0.316406 0 0.257812 0.015625 0.1875 0.015625 C 0.113281 0.015625 0.0507812 0 0 -0.03125 L 0 -0.125 C 0.03125 -0.101562 0.0625 -0.0859375 0.09375 -0.078125 C 0.125 -0.0664062 0.148438 -0.0625 0.171875 -0.0625 C 0.222656 -0.0625 0.257812 -0.0703125 0.28125 -0.09375 C 0.3125 -0.113281 0.328125 -0.140625 0.328125 -0.171875 C 0.328125 -0.191406 0.316406 -0.207031 0.296875 -0.21875 C 0.285156 -0.238281 0.257812 -0.265625 0.21875 -0.296875 C 0.164062 -0.316406 0.128906 -0.335938 0.109375 -0.359375 C 0.0859375 -0.390625 0.078125 -0.425781 0.078125 -0.46875 C 0.078125 -0.519531 0.0976562 -0.5625 0.140625 -0.59375 C 0.179688 -0.625 0.234375 -0.640625 0.296875 -0.640625 C 0.359375 -0.640625 0.421875 -0.628906 0.484375 -0.609375 L 0.453125 -0.53125 L 0.421875 -0.546875 C 0.378906 -0.554688 0.335938 -0.5625 0.296875 -0.5625 C 0.253906 -0.5625 0.222656 -0.550781 0.203125 -0.53125 C 0.179688 -0.519531 0.171875 -0.5 0.171875 -0.46875 C 0.171875 -0.445312 0.175781 -0.425781 0.1875 -0.40625 C 0.207031 -0.394531 0.238281 -0.378906 0.28125 -0.359375 C 0.320312 -0.335938 0.351562 -0.316406 0.375 -0.296875 C 0.394531 -0.285156 0.40625 -0.269531 0.40625 -0.25 C 0.414062 -0.226562 0.421875 -0.207031 0.421875 -0.1875 Z M 0.421875 -0.1875 "/></g></g><g transform="translate(9.100305, 1.594933)"><g/></g><g transform="translate(9.407923, 1.594933)"><g><path d="M 0.28125 0.015625 C 0.207031 0.015625 0.148438 -0.00390625 0.109375 -0.046875 C 0.078125 -0.0859375 0.0625 -0.148438 0.0625 -0.234375 C 0.0625 -0.296875 0.0703125 -0.359375 0.09375 -0.421875 C 0.125 -0.492188 0.160156 -0.546875 0.203125 -0.578125 C 0.253906 -0.617188 0.3125 -0.640625 0.375 -0.640625 C 0.425781 -0.640625 0.46875 -0.625 0.5 -0.59375 C 0.53125 -0.570312 0.546875 -0.539062 0.546875 -0.5 C 0.546875 -0.425781 0.515625 -0.367188 0.453125 -0.328125 C 0.390625 -0.296875 0.296875 -0.28125 0.171875 -0.28125 L 0.15625 -0.28125 L 0.15625 -0.234375 C 0.15625 -0.179688 0.164062 -0.140625 0.1875 -0.109375 C 0.21875 -0.078125 0.253906 -0.0625 0.296875 -0.0625 C 0.328125 -0.0625 0.351562 -0.0664062 0.375 -0.078125 C 0.40625 -0.0859375 0.4375 -0.101562 0.46875 -0.125 L 0.46875 -0.03125 C 0.4375 -0.0195312 0.40625 -0.0078125 0.375 0 C 0.34375 0.0078125 0.3125 0.015625 0.28125 0.015625 Z M 0.359375 -0.5625 C 0.328125 -0.5625 0.289062 -0.539062 0.25 -0.5 C 0.21875 -0.46875 0.191406 -0.421875 0.171875 -0.359375 L 0.1875 -0.359375 C 0.269531 -0.359375 0.332031 -0.367188 0.375 -0.390625 C 0.425781 -0.410156 0.453125 -0.445312 0.453125 -0.5 C 0.453125 -0.519531 0.441406 -0.535156 0.421875 -0.546875 C 0.410156 -0.554688 0.390625 -0.5625 0.359375 -0.5625 Z M 0.359375 -0.5625 "/></g></g><g transform="translate(9.991933, 1.594933)"><g><path d="M 0.421875 0 L 0.515625 -0.40625 C 0.515625 -0.445312 0.515625 -0.472656 0.515625 -0.484375 C 0.515625 -0.503906 0.507812 -0.519531 0.5 -0.53125 C 0.488281 -0.550781 0.46875 -0.5625 0.4375 -0.5625 C 0.394531 -0.5625 0.359375 -0.550781 0.328125 -0.53125 C 0.296875 -0.507812 0.265625 -0.472656 0.234375 -0.421875 C 0.210938 -0.378906 0.195312 -0.332031 0.1875 -0.28125 L 0.125 0 L 0.03125 0 L 0.171875 -0.640625 L 0.25 -0.640625 L 0.234375 -0.515625 L 0.25 -0.515625 C 0.28125 -0.566406 0.3125 -0.597656 0.34375 -0.609375 C 0.382812 -0.628906 0.421875 -0.640625 0.453125 -0.640625 C 0.503906 -0.640625 0.546875 -0.625 0.578125 -0.59375 C 0.609375 -0.570312 0.625 -0.539062 0.625 -0.5 C 0.625 -0.46875 0.617188 -0.429688 0.609375 -0.390625 L 0.515625 0 Z M 0.421875 0 "/></g></g><g transform="translate(10.675398, 1.594933)"><g/></g><g transform="translate(10.983015, 1.594933)"><g><path d="M 0.375 -0.640625 C 0.445312 -0.640625 0.5 -0.601562 0.53125 -0.53125 L 0.546875 -0.53125 C 0.546875 -0.59375 0.550781 -0.644531 0.5625 -0.6875 L 0.609375 -0.90625 L 0.703125 -0.90625 L 0.515625 0 L 0.4375 0 L 0.453125 -0.125 L 0.4375 -0.125 C 0.40625 -0.0703125 0.367188 -0.0351562 0.328125 -0.015625 C 0.296875 0.00390625 0.265625 0.015625 0.234375 0.015625 C 0.171875 0.015625 0.125 -0.00390625 0.09375 -0.046875 C 0.0703125 -0.0859375 0.0625 -0.140625 0.0625 -0.203125 C 0.0625 -0.285156 0.0703125 -0.359375 0.09375 -0.421875 C 0.125 -0.492188 0.160156 -0.546875 0.203125 -0.578125 C 0.253906 -0.617188 0.3125 -0.640625 0.375 -0.640625 Z M 0.265625 -0.0625 C 0.296875 -0.0625 0.332031 -0.078125 0.375 -0.109375 C 0.414062 -0.148438 0.445312 -0.195312 0.46875 -0.25 C 0.488281 -0.3125 0.5 -0.375 0.5 -0.4375 C 0.5 -0.476562 0.488281 -0.507812 0.46875 -0.53125 C 0.445312 -0.550781 0.414062 -0.5625 0.375 -0.5625 C 0.332031 -0.5625 0.296875 -0.546875 0.265625 -0.515625 C 0.234375 -0.484375 0.207031 -0.4375 0.1875 -0.375 C 0.164062 -0.320312 0.15625 -0.265625 0.15625 -0.203125 C 0.15625 -0.109375 0.191406 -0.0625 0.265625 -0.0625 Z M 0.265625 -0.0625 "/></g></g><g transform="translate(11.66648, 1.594933)"><g><path d="M 0.375 -0.640625 C 0.445312 -0.640625 0.503906 -0.617188 0.546875 -0.578125 C 0.585938 -0.535156 0.609375 -0.476562 0.609375 -0.40625 C 0.609375 -0.332031 0.59375 -0.257812 0.5625 -0.1875 C 0.539062 -0.125 0.503906 -0.0703125 0.453125 -0.03125 C 0.410156 0 0.359375 0.015625 0.296875 0.015625 C 0.222656 0.015625 0.164062 -0.00390625 0.125 -0.046875 C 0.0820312 -0.0976562 0.0625 -0.160156 0.0625 -0.234375 C 0.0625 -0.304688 0.0703125 -0.375 0.09375 -0.4375 C 0.125 -0.507812 0.160156 -0.5625 0.203125 -0.59375 C 0.253906 -0.625 0.3125 -0.640625 0.375 -0.640625 Z M 0.515625 -0.40625 C 0.515625 -0.457031 0.5 -0.492188 0.46875 -0.515625 C 0.445312 -0.546875 0.414062 -0.5625 0.375 -0.5625 C 0.332031 -0.5625 0.296875 -0.546875 0.265625 -0.515625 C 0.234375 -0.484375 0.207031 -0.441406 0.1875 -0.390625 C 0.164062 -0.347656 0.15625 -0.296875 0.15625 -0.234375 C 0.15625 -0.179688 0.164062 -0.140625 0.1875 -0.109375 C 0.21875 -0.0859375 0.253906 -0.078125 0.296875 -0.078125 C 0.335938 -0.078125 0.375 -0.0859375 0.40625 -0.109375 C 0.4375 -0.140625 0.460938 -0.179688 0.484375 -0.234375 C 0.503906 -0.285156 0.515625 -0.34375 0.515625 -0.40625 Z M 0.515625 -0.40625 "/></g></g><g transform="translate(12.330864, 1.594933)"><g><path d="M 0.421875 0 L 0.515625 -0.40625 C 0.515625 -0.445312 0.515625 -0.472656 0.515625 -0.484375 C 0.515625 -0.503906 0.507812 -0.519531 0.5 -0.53125 C 0.488281 -0.550781 0.46875 -0.5625 0.4375 -0.5625 C 0.394531 -0.5625 0.359375 -0.550781 0.328125 -0.53125 C 0.296875 -0.507812 0.265625 -0.472656 0.234375 -0.421875 C 0.210938 -0.378906 0.195312 -0.332031 0.1875 -0.28125 L 0.125 0 L 0.03125 0 L 0.171875 -0.640625 L 0.25 -0.640625 L 0.234375 -0.515625 L 0.25 -0.515625 C 0.28125 -0.566406 0.3125 -0.597656 0.34375 -0.609375 C 0.382812 -0.628906 0.421875 -0.640625 0.453125 -0.640625 C 0.503906 -0.640625 0.546875 -0.625 0.578125 -0.59375 C 0.609375 -0.570312 0.625 -0.539062 0.625 -0.5 C 0.625 -0.46875 0.617188 -0.429688 0.609375 -0.390625 L 0.515625 0 Z M 0.421875 0 "/></g></g><g transform="translate(13.014329, 1.594933)"><g><path d="M 0.375 -0.640625 C 0.445312 -0.640625 0.5 -0.601562 0.53125 -0.53125 L 0.546875 -0.53125 C 0.546875 -0.59375 0.550781 -0.644531 0.5625 -0.6875 L 0.609375 -0.90625 L 0.703125 -0.90625 L 0.515625 0 L 0.4375 0 L 0.453125 -0.125 L 0.4375 -0.125 C 0.40625 -0.0703125 0.367188 -0.0351562 0.328125 -0.015625 C 0.296875 0.00390625 0.265625 0.015625 0.234375 0.015625 C 0.171875 0.015625 0.125 -0.00390625 0.09375 -0.046875 C 0.0703125 -0.0859375 0.0625 -0.140625 0.0625 -0.203125 C 0.0625 -0.285156 0.0703125 -0.359375 0.09375 -0.421875 C 0.125 -0.492188 0.160156 -0.546875 0.203125 -0.578125 C 0.253906 -0.617188 0.3125 -0.640625 0.375 -0.640625 Z M 0.265625 -0.0625 C 0.296875 -0.0625 0.332031 -0.078125 0.375 -0.109375 C 0.414062 -0.148438 0.445312 -0.195312 0.46875 -0.25 C 0.488281 -0.3125 0.5 -0.375 0.5 -0.4375 C 0.5 -0.476562 0.488281 -0.507812 0.46875 -0.53125 C 0.445312 -0.550781 0.414062 -0.5625 0.375 -0.5625 C 0.332031 -0.5625 0.296875 -0.546875 0.265625 -0.515625 C 0.234375 -0.484375 0.207031 -0.4375 0.1875 -0.375 C 0.164062 -0.320312 0.15625 -0.265625 0.15625 -0.203125 C 0.15625 -0.109375 0.191406 -0.0625 0.265625 -0.0625 Z M 0.265625 -0.0625 "/></g></g><g transform="translate(13.697794, 1.594933)"><g><path d="M 0.28125 0.015625 C 0.207031 0.015625 0.148438 -0.00390625 0.109375 -0.046875 C 0.078125 -0.0859375 0.0625 -0.148438 0.0625 -0.234375 C 0.0625 -0.296875 0.0703125 -0.359375 0.09375 -0.421875 C 0.125 -0.492188 0.160156 -0.546875 0.203125 -0.578125 C 0.253906 -0.617188 0.3125 -0.640625 0.375 -0.640625 C 0.425781 -0.640625 0.46875 -0.625 0.5 -0.59375 C 0.53125 -0.570312 0.546875 -0.539062 0.546875 -0.5 C 0.546875 -0.425781 0.515625 -0.367188 0.453125 -0.328125 C 0.390625 -0.296875 0.296875 -0.28125 0.171875 -0.28125 L 0.15625 -0.28125 L 0.15625 -0.234375 C 0.15625 -0.179688 0.164062 -0.140625 0.1875 -0.109375 C 0.21875 -0.078125 0.253906 -0.0625 0.296875 -0.0625 C 0.328125 -0.0625 0.351562 -0.0664062 0.375 -0.078125 C 0.40625 -0.0859375 0.4375 -0.101562 0.46875 -0.125 L 0.46875 -0.03125 C 0.4375 -0.0195312 0.40625 -0.0078125 0.375 0 C 0.34375 0.0078125 0.3125 0.015625 0.28125 0.015625 Z M 0.359375 -0.5625 C 0.328125 -0.5625 0.289062 -0.539062 0.25 -0.5 C 0.21875 -0.46875 0.191406 -0.421875 0.171875 -0.359375 L 0.1875 -0.359375 C 0.269531 -0.359375 0.332031 -0.367188 0.375 -0.390625 C 0.425781 -0.410156 0.453125 -0.445312 0.453125 -0.5 C 0.453125 -0.519531 0.441406 -0.535156 0.421875 -0.546875 C 0.410156 -0.554688 0.390625 -0.5625 0.359375 -0.5625 Z M 0.359375 -0.5625 "/></g></g><g transform="translate(14.281804, 1.594933)"><g/></g><g transform="translate(14.589422, 1.594933)"><g><path d="M 0.234375 -0.0625 C 0.253906 -0.0625 0.28125 -0.0664062 0.3125 -0.078125 L 0.3125 -0.015625 C 0.300781 -0.00390625 0.285156 0 0.265625 0 C 0.242188 0.0078125 0.226562 0.015625 0.21875 0.015625 C 0.164062 0.015625 0.125 0.00390625 0.09375 -0.015625 C 0.0703125 -0.046875 0.0625 -0.0820312 0.0625 -0.125 C 0.0625 -0.15625 0.0664062 -0.1875 0.078125 -0.21875 L 0.15625 -0.5625 L 0.046875 -0.5625 L 0.0625 -0.609375 L 0.171875 -0.65625 L 0.234375 -0.78125 L 0.296875 -0.78125 L 0.265625 -0.640625 L 0.421875 -0.640625 L 0.40625 -0.5625 L 0.25 -0.5625 L 0.171875 -0.21875 C 0.171875 -0.175781 0.171875 -0.148438 0.171875 -0.140625 C 0.171875 -0.117188 0.175781 -0.0976562 0.1875 -0.078125 C 0.195312 -0.0664062 0.210938 -0.0625 0.234375 -0.0625 Z M 0.234375 -0.0625 "/></g></g><g transform="translate(14.973365, 1.594933)"><g><path d="M 0.375 -0.640625 C 0.445312 -0.640625 0.503906 -0.617188 0.546875 -0.578125 C 0.585938 -0.535156 0.609375 -0.476562 0.609375 -0.40625 C 0.609375 -0.332031 0.59375 -0.257812 0.5625 -0.1875 C 0.539062 -0.125 0.503906 -0.0703125 0.453125 -0.03125 C 0.410156 0 0.359375 0.015625 0.296875 0.015625 C 0.222656 0.015625 0.164062 -0.00390625 0.125 -0.046875 C 0.0820312 -0.0976562 0.0625 -0.160156 0.0625 -0.234375 C 0.0625 -0.304688 0.0703125 -0.375 0.09375 -0.4375 C 0.125 -0.507812 0.160156 -0.5625 0.203125 -0.59375 C 0.253906 -0.625 0.3125 -0.640625 0.375 -0.640625 Z M 0.515625 -0.40625 C 0.515625 -0.457031 0.5 -0.492188 0.46875 -0.515625 C 0.445312 -0.546875 0.414062 -0.5625 0.375 -0.5625 C 0.332031 -0.5625 0.296875 -0.546875 0.265625 -0.515625 C 0.234375 -0.484375 0.207031 -0.441406 0.1875 -0.390625 C 0.164062 -0.347656 0.15625 -0.296875 0.15625 -0.234375 C 0.15625 -0.179688 0.164062 -0.140625 0.1875 -0.109375 C 0.21875 -0.0859375 0.253906 -0.078125 0.296875 -0.078125 C 0.335938 -0.078125 0.375 -0.0859375 0.40625 -0.109375 C 0.4375 -0.140625 0.460938 -0.179688 0.484375 -0.234375 C 0.503906 -0.285156 0.515625 -0.34375 0.515625 -0.40625 Z M 0.515625 -0.40625 "/></g></g><g transform="translate(15.637749, 1.594933)"><g><path d="M 0.375 -0.640625 C 0.445312 -0.640625 0.5 -0.601562 0.53125 -0.53125 L 0.546875 -0.53125 C 0.546875 -0.59375 0.550781 -0.644531 0.5625 -0.6875 L 0.609375 -0.90625 L 0.703125 -0.90625 L 0.515625 0 L 0.4375 0 L 0.453125 -0.125 L 0.4375 -0.125 C 0.40625 -0.0703125 0.367188 -0.0351562 0.328125 -0.015625 C 0.296875 0.00390625 0.265625 0.015625 0.234375 0.015625 C 0.171875 0.015625 0.125 -0.00390625 0.09375 -0.046875 C 0.0703125 -0.0859375 0.0625 -0.140625 0.0625 -0.203125 C 0.0625 -0.285156 0.0703125 -0.359375 0.09375 -0.421875 C 0.125 -0.492188 0.160156 -0.546875 0.203125 -0.578125 C 0.253906 -0.617188 0.3125 -0.640625 0.375 -0.640625 Z M 0.265625 -0.0625 C 0.296875 -0.0625 0.332031 -0.078125 0.375 -0.109375 C 0.414062 -0.148438 0.445312 -0.195312 0.46875 -0.25 C 0.488281 -0.3125 0.5 -0.375 0.5 -0.4375 C 0.5 -0.476562 0.488281 -0.507812 0.46875 -0.53125 C 0.445312 -0.550781 0.414062 -0.5625 0.375 -0.5625 C 0.332031 -0.5625 0.296875 -0.546875 0.265625 -0.515625 C 0.234375 -0.484375 0.207031 -0.4375 0.1875 -0.375 C 0.164062 -0.320312 0.15625 -0.265625 0.15625 -0.203125 C 0.15625 -0.109375 0.191406 -0.0625 0.265625 -0.0625 Z M 0.265625 -0.0625 "/></g></g><g transform="translate(16.321214, 1.594933)"><g><path d="M 0.375 -0.640625 C 0.445312 -0.640625 0.503906 -0.617188 0.546875 -0.578125 C 0.585938 -0.535156 0.609375 -0.476562 0.609375 -0.40625 C 0.609375 -0.332031 0.59375 -0.257812 0.5625 -0.1875 C 0.539062 -0.125 0.503906 -0.0703125 0.453125 -0.03125 C 0.410156 0 0.359375 0.015625 0.296875 0.015625 C 0.222656 0.015625 0.164062 -0.00390625 0.125 -0.046875 C 0.0820312 -0.0976562 0.0625 -0.160156 0.0625 -0.234375 C 0.0625 -0.304688 0.0703125 -0.375 0.09375 -0.4375 C 0.125 -0.507812 0.160156 -0.5625 0.203125 -0.59375 C 0.253906 -0.625 0.3125 -0.640625 0.375 -0.640625 Z M 0.515625 -0.40625 C 0.515625 -0.457031 0.5 -0.492188 0.46875 -0.515625 C 0.445312 -0.546875 0.414062 -0.5625 0.375 -0.5625 C 0.332031 -0.5625 0.296875 -0.546875 0.265625 -0.515625 C 0.234375 -0.484375 0.207031 -0.441406 0.1875 -0.390625 C 0.164062 -0.347656 0.15625 -0.296875 0.15625 -0.234375 C 0.15625 -0.179688 0.164062 -0.140625 0.1875 -0.109375 C 0.21875 -0.0859375 0.253906 -0.078125 0.296875 -0.078125 C 0.335938 -0.078125 0.375 -0.0859375 0.40625 -0.109375 C 0.4375 -0.140625 0.460938 -0.179688 0.484375 -0.234375 C 0.503906 -0.285156 0.515625 -0.34375 0.515625 -0.40625 Z M 0.515625 -0.40625 "/></g></g><g transform="translate(16.985597, 1.594933)"><g><path d="M 0.421875 -0.1875 C 0.421875 -0.125 0.398438 -0.0703125 0.359375 -0.03125 C 0.316406 0 0.257812 0.015625 0.1875 0.015625 C 0.113281 0.015625 0.0507812 0 0 -0.03125 L 0 -0.125 C 0.03125 -0.101562 0.0625 -0.0859375 0.09375 -0.078125 C 0.125 -0.0664062 0.148438 -0.0625 0.171875 -0.0625 C 0.222656 -0.0625 0.257812 -0.0703125 0.28125 -0.09375 C 0.3125 -0.113281 0.328125 -0.140625 0.328125 -0.171875 C 0.328125 -0.191406 0.316406 -0.207031 0.296875 -0.21875 C 0.285156 -0.238281 0.257812 -0.265625 0.21875 -0.296875 C 0.164062 -0.316406 0.128906 -0.335938 0.109375 -0.359375 C 0.0859375 -0.390625 0.078125 -0.425781 0.078125 -0.46875 C 0.078125 -0.519531 0.0976562 -0.5625 0.140625 -0.59375 C 0.179688 -0.625 0.234375 -0.640625 0.296875 -0.640625 C 0.359375 -0.640625 0.421875 -0.628906 0.484375 -0.609375 L 0.453125 -0.53125 L 0.421875 -0.546875 C 0.378906 -0.554688 0.335938 -0.5625 0.296875 -0.5625 C 0.253906 -0.5625 0.222656 -0.550781 0.203125 -0.53125 C 0.179688 -0.519531 0.171875 -0.5 0.171875 -0.46875 C 0.171875 -0.445312 0.175781 -0.425781 0.1875 -0.40625 C 0.207031 -0.394531 0.238281 -0.378906 0.28125 -0.359375 C 0.320312 -0.335938 0.351562 -0.316406 0.375 -0.296875 C 0.394531 -0.285156 0.40625 -0.269531 0.40625 -0.25 C 0.414062 -0.226562 0.421875 -0.207031 0.421875 -0.1875 Z M 0.421875 -0.1875 "/></g></g><g transform="translate(17.492703, 1.594933)"><g/></g><g transform="translate(17.80032, 1.594933)"><g><path d="M 0.296875 0.015625 C 0.222656 0.015625 0.164062 -0.00390625 0.125 -0.046875 C 0.0820312 -0.0859375 0.0625 -0.144531 0.0625 -0.21875 C 0.0625 -0.300781 0.0703125 -0.375 0.09375 -0.4375 C 0.125 -0.5 0.164062 -0.546875 0.21875 -0.578125 C 0.269531 -0.617188 0.328125 -0.640625 0.390625 -0.640625 C 0.441406 -0.640625 0.492188 -0.632812 0.546875 -0.625 L 0.515625 -0.53125 C 0.472656 -0.550781 0.429688 -0.5625 0.390625 -0.5625 C 0.347656 -0.5625 0.304688 -0.546875 0.265625 -0.515625 C 0.234375 -0.492188 0.207031 -0.453125 0.1875 -0.390625 C 0.164062 -0.335938 0.15625 -0.28125 0.15625 -0.21875 C 0.15625 -0.175781 0.164062 -0.140625 0.1875 -0.109375 C 0.21875 -0.078125 0.253906 -0.0625 0.296875 -0.0625 C 0.328125 -0.0625 0.351562 -0.0664062 0.375 -0.078125 C 0.40625 -0.0859375 0.429688 -0.0976562 0.453125 -0.109375 L 0.453125 -0.03125 C 0.398438 0 0.347656 0.015625 0.296875 0.015625 Z M 0.296875 0.015625 "/></g></g><g transform="translate(18.333446, 1.594933)"><g><path d="M 0.265625 -0.640625 L 0.171875 -0.234375 C 0.171875 -0.203125 0.171875 -0.175781 0.171875 -0.15625 C 0.171875 -0.09375 0.195312 -0.0625 0.25 -0.0625 C 0.28125 -0.0625 0.3125 -0.0703125 0.34375 -0.09375 C 0.382812 -0.125 0.414062 -0.160156 0.4375 -0.203125 C 0.457031 -0.242188 0.476562 -0.296875 0.5 -0.359375 L 0.546875 -0.640625 L 0.640625 -0.640625 L 0.515625 0 L 0.4375 0 L 0.453125 -0.125 L 0.4375 -0.125 C 0.394531 -0.0703125 0.359375 -0.0351562 0.328125 -0.015625 C 0.296875 0.00390625 0.257812 0.015625 0.21875 0.015625 C 0.175781 0.015625 0.140625 0.00390625 0.109375 -0.015625 C 0.078125 -0.046875 0.0625 -0.0859375 0.0625 -0.140625 C 0.0625 -0.171875 0.0664062 -0.207031 0.078125 -0.25 L 0.15625 -0.640625 Z M 0.265625 -0.640625 "/></g></g><g transform="translate(19.016912, 1.594933)"><g><path d="M 0.28125 0.015625 C 0.207031 0.015625 0.148438 -0.00390625 0.109375 -0.046875 C 0.078125 -0.0859375 0.0625 -0.148438 0.0625 -0.234375 C 0.0625 -0.296875 0.0703125 -0.359375 0.09375 -0.421875 C 0.125 -0.492188 0.160156 -0.546875 0.203125 -0.578125 C 0.253906 -0.617188 0.3125 -0.640625 0.375 -0.640625 C 0.425781 -0.640625 0.46875 -0.625 0.5 -0.59375 C 0.53125 -0.570312 0.546875 -0.539062 0.546875 -0.5 C 0.546875 -0.425781 0.515625 -0.367188 0.453125 -0.328125 C 0.390625 -0.296875 0.296875 -0.28125 0.171875 -0.28125 L 0.15625 -0.28125 L 0.15625 -0.234375 C 0.15625 -0.179688 0.164062 -0.140625 0.1875 -0.109375 C 0.21875 -0.078125 0.253906 -0.0625 0.296875 -0.0625 C 0.328125 -0.0625 0.351562 -0.0664062 0.375 -0.078125 C 0.40625 -0.0859375 0.4375 -0.101562 0.46875 -0.125 L 0.46875 -0.03125 C 0.4375 -0.0195312 0.40625 -0.0078125 0.375 0 C 0.34375 0.0078125 0.3125 0.015625 0.28125 0.015625 Z M 0.359375 -0.5625 C 0.328125 -0.5625 0.289062 -0.539062 0.25 -0.5 C 0.21875 -0.46875 0.191406 -0.421875 0.171875 -0.359375 L 0.1875 -0.359375 C 0.269531 -0.359375 0.332031 -0.367188 0.375 -0.390625 C 0.425781 -0.410156 0.453125 -0.445312 0.453125 -0.5 C 0.453125 -0.519531 0.441406 -0.535156 0.421875 -0.546875 C 0.410156 -0.554688 0.390625 -0.5625 0.359375 -0.5625 Z M 0.359375 -0.5625 "/></g></g><g transform="translate(19.600922, 1.594933)"><g><path d="M 0.421875 0 L 0.515625 -0.40625 C 0.515625 -0.445312 0.515625 -0.472656 0.515625 -0.484375 C 0.515625 -0.503906 0.507812 -0.519531 0.5 -0.53125 C 0.488281 -0.550781 0.46875 -0.5625 0.4375 -0.5625 C 0.394531 -0.5625 0.359375 -0.550781 0.328125 -0.53125 C 0.296875 -0.507812 0.265625 -0.472656 0.234375 -0.421875 C 0.210938 -0.378906 0.195312 -0.332031 0.1875 -0.28125 L 0.125 0 L 0.03125 0 L 0.171875 -0.640625 L 0.25 -0.640625 L 0.234375 -0.515625 L 0.25 -0.515625 C 0.28125 -0.566406 0.3125 -0.597656 0.34375 -0.609375 C 0.382812 -0.628906 0.421875 -0.640625 0.453125 -0.640625 C 0.503906 -0.640625 0.546875 -0.625 0.578125 -0.59375 C 0.609375 -0.570312 0.625 -0.539062 0.625 -0.5 C 0.625 -0.46875 0.617188 -0.429688 0.609375 -0.390625 L 0.515625 0 Z M 0.421875 0 "/></g></g><g transform="translate(20.284387, 1.594933)"><g><path d="M 0.234375 -0.0625 C 0.253906 -0.0625 0.28125 -0.0664062 0.3125 -0.078125 L 0.3125 -0.015625 C 0.300781 -0.00390625 0.285156 0 0.265625 0 C 0.242188 0.0078125 0.226562 0.015625 0.21875 0.015625 C 0.164062 0.015625 0.125 0.00390625 0.09375 -0.015625 C 0.0703125 -0.046875 0.0625 -0.0820312 0.0625 -0.125 C 0.0625 -0.15625 0.0664062 -0.1875 0.078125 -0.21875 L 0.15625 -0.5625 L 0.046875 -0.5625 L 0.0625 -0.609375 L 0.171875 -0.65625 L 0.234375 -0.78125 L 0.296875 -0.78125 L 0.265625 -0.640625 L 0.421875 -0.640625 L 0.40625 -0.5625 L 0.25 -0.5625 L 0.171875 -0.21875 C 0.171875 -0.175781 0.171875 -0.148438 0.171875 -0.140625 C 0.171875 -0.117188 0.175781 -0.0976562 0.1875 -0.078125 C 0.195312 -0.0664062 0.210938 -0.0625 0.234375 -0.0625 Z M 0.234375 -0.0625 "/></g></g><g transform="translate(20.66833, 1.594933)"><g><path d="M 0.375 -0.640625 C 0.40625 -0.640625 0.429688 -0.628906 0.453125 -0.609375 C 0.484375 -0.597656 0.507812 -0.570312 0.53125 -0.53125 L 0.578125 -0.640625 L 0.65625 -0.640625 L 0.515625 0 L 0.4375 0 L 0.453125 -0.125 C 0.378906 -0.03125 0.304688 0.015625 0.234375 0.015625 C 0.179688 0.015625 0.140625 -0.00390625 0.109375 -0.046875 C 0.078125 -0.0859375 0.0625 -0.140625 0.0625 -0.203125 C 0.0625 -0.285156 0.0703125 -0.359375 0.09375 -0.421875 C 0.125 -0.492188 0.160156 -0.546875 0.203125 -0.578125 C 0.253906 -0.617188 0.3125 -0.640625 0.375 -0.640625 Z M 0.265625 -0.0625 C 0.296875 -0.0625 0.328125 -0.078125 0.359375 -0.109375 C 0.398438 -0.148438 0.429688 -0.195312 0.453125 -0.25 C 0.484375 -0.3125 0.5 -0.375 0.5 -0.4375 C 0.5 -0.476562 0.488281 -0.507812 0.46875 -0.53125 C 0.445312 -0.550781 0.414062 -0.5625 0.375 -0.5625 C 0.332031 -0.5625 0.296875 -0.546875 0.265625 -0.515625 C 0.234375 -0.484375 0.207031 -0.4375 0.1875 -0.375 C 0.164062 -0.320312 0.15625 -0.265625 0.15625 -0.203125 C 0.15625 -0.160156 0.164062 -0.125 0.1875 -0.09375 C 0.207031 -0.0703125 0.234375 -0.0625 0.265625 -0.0625 Z M 0.265625 -0.0625 "/></g></g><g transform="translate(21.33734, 1.594933)"><g><path d="M 0.421875 0 L 0.515625 -0.40625 C 0.515625 -0.445312 0.515625 -0.472656 0.515625 -0.484375 C 0.515625 -0.503906 0.507812 -0.519531 0.5 -0.53125 C 0.488281 -0.550781 0.46875 -0.5625 0.4375 -0.5625 C 0.394531 -0.5625 0.359375 -0.550781 0.328125 -0.53125 C 0.296875 -0.507812 0.265625 -0.472656 0.234375 -0.421875 C 0.210938 -0.378906 0.195312 -0.332031 0.1875 -0.28125 L 0.125 0 L 0.03125 0 L 0.171875 -0.640625 L 0.25 -0.640625 L 0.234375 -0.515625 L 0.25 -0.515625 C 0.28125 -0.566406 0.3125 -0.597656 0.34375 -0.609375 C 0.382812 -0.628906 0.421875 -0.640625 0.453125 -0.640625 C 0.503906 -0.640625 0.546875 -0.625 0.578125 -0.59375 C 0.609375 -0.570312 0.625 -0.539062 0.625 -0.5 C 0.625 -0.46875 0.617188 -0.429688 0.609375 -0.390625 L 0.515625 0 Z M 0.421875 0 "/></g></g></g></g></g></g></svg>